<?xml version="1.0" standalone="no"?>
<!DOCTYPE svg PUBLIC "-//W3C//DTD SVG 20010904//EN"
 "http://www.w3.org/TR/2001/REC-SVG-20010904/DTD/svg10.dtd">
<svg version="1.0" xmlns="http://www.w3.org/2000/svg"
 width="900.000000pt" height="900.000000pt" viewBox="0 0 900.000000 900.000000"
 preserveAspectRatio="xMidYMid meet">

<g transform="translate(0.000000,900.000000) scale(0.100000,-0.100000)"
fill="#000000" stroke="none">
<path d="M4165 8984 c-835 -81 -1510 -315 -2158 -746 -264 -175 -440 -320
-683 -563 -249 -248 -408 -443 -587 -716 -467 -717 -711 -1508 -734 -2384 -12
-478 74 -1040 231 -1503 183 -540 459 -1029 835 -1477 98 -117 421 -441 536
-537 555 -463 1153 -763 1885 -942 182 -44 519 -90 800 -107 542 -34 1193 65
1740 264 981 356 1803 1038 2334 1936 333 563 537 1182 612 1861 38 348 28
669 -32 1085 -125 853 -489 1645 -1051 2285 -502 572 -1111 1000 -1794 1260
-375 143 -785 238 -1159 270 -388 32 -558 35 -775 14z m480 -554 c397 -18 531
-36 830 -112 664 -168 1266 -507 1759 -988 385 -376 661 -773 878 -1264 124
-281 237 -669 282 -973 94 -625 38 -1266 -163 -1853 -142 -416 -368 -831 -655
-1199 -95 -123 -336 -375 -347 -364 -4 4 -30 71 -59 148 -150 409 -385 766
-710 1078 -456 440 -925 677 -1545 781 -590 99 -1224 -4 -1771 -289 -533 -277
-974 -721 -1240 -1250 -36 -71 -91 -193 -122 -269 -31 -77 -63 -141 -71 -144
-23 -8 -229 223 -388 436 -302 402 -528 885 -652 1392 -87 354 -116 624 -108
1015 7 386 42 632 137 978 292 1061 1047 1976 2040 2473 361 180 754 305 1162
368 305 48 389 52 743 36z"/>
<path d="M4205 7536 c-98 -19 -214 -52 -325 -93 -534 -198 -926 -653 -1052
-1220 -20 -86 -22 -128 -23 -348 0 -249 0 -251 32 -375 72 -286 177 -493 356
-706 197 -235 458 -408 772 -513 166 -55 213 -61 510 -61 296 0 367 10 540 75
513 192 881 570 1048 1075 54 163 70 275 70 495 -1 284 -26 415 -126 657 -90
217 -193 374 -349 530 -236 237 -574 417 -888 473 -129 23 -469 30 -565 11z"/>
</g>
</svg>
