<svg width="1435" height="495" viewBox="0 0 1435 495" fill="none" xmlns="http://www.w3.org/2000/svg">
<rect x="1208" y="70" width="32" height="247" fill="#C0C0C0"/>
<rect x="1169" y="108" width="32" height="232" fill="#C0C0C0"/>
<rect x="1130" y="131" width="32" height="232" fill="#C0C0C0"/>
<rect x="1091" y="98" width="32" height="232" fill="#FFE432"/>
<rect x="1364" width="32" height="317" fill="#C0C0C0"/>
<rect x="1325" y="38" width="32" height="302" fill="#FFEA00"/>
<rect x="1403" y="47" width="32" height="266" fill="#C0C0C0"/>
<rect x="1286" y="61" width="32" height="232" fill="#C0C0C0"/>
<rect x="1247" y="28" width="32" height="267" fill="#C0C0C0"/>
<rect x="1052" y="85" width="32" height="232" fill="#C0C0C0"/>
<rect x="974" y="85" width="32" height="226" fill="#C0C0C0"/>
<rect x="935" y="61" width="32" height="250" fill="#FFEA00"/>
<rect x="896" y="13" width="32" height="329" fill="#C0C0C0"/>
<path d="M857 70H889V323H857V70Z" fill="#C0C0C0"/>
<rect x="818" y="108" width="32" height="232" fill="#C0C0C0"/>
<rect x="740" y="131" width="32" height="232" fill="#C0C0C0"/>
<rect x="662" y="147" width="32" height="232" fill="#C0C0C0"/>
<rect x="623" y="125" width="32" height="232" fill="#FFE432"/>
<rect x="701" y="151" width="32" height="232" fill="#C0C0C0"/>
<rect x="584" y="133" width="32" height="232" fill="#C0C0C0"/>
<rect x="545" y="148" width="32" height="232" fill="#C0C0C0"/>
<rect x="350" y="164" width="32" height="303" fill="#C0C0C0"/>
<rect x="311" y="213" width="32" height="232" fill="#FFEA00"/>
<rect x="389" y="133" width="32" height="338" fill="#C0C0C0"/>
<rect x="272" y="221" width="32" height="232" fill="#C0C0C0"/>
<rect x="233" y="194" width="32" height="274" fill="#C0C0C0"/>
<rect x="467" y="164" width="32" height="232" fill="#C0C0C0"/>
<rect x="506" y="168" width="32" height="232" fill="#C0C0C0"/>
<rect x="428" y="207" width="32" height="232" fill="#C0C0C0"/>
<rect x="77" y="173" width="32" height="232" fill="#C0C0C0"/>
<rect x="38" y="151" width="32" height="232" fill="#F2BB16"/>
<rect x="116" y="177" width="32" height="232" fill="#C0C0C0"/>
<rect x="-1" y="159" width="32" height="232" fill="#C0C0C0"/>
<rect x="155" y="145" width="32" height="232" fill="#C0C0C0"/>
<rect x="779" y="116" width="32" height="232" fill="#C0C0C0"/>
<rect x="1013" y="98" width="32" height="232" fill="#C0C0C0"/>
<rect x="194" y="118" width="32" height="377" fill="#C0C0C0"/>
</svg>
