<?xml version="1.0" encoding="UTF-8"?>
<svg version="1.1" xmlns="http://www.w3.org/2000/svg" width="512" height="512">
<path d="M0 0 C1.01790619 0.00215515 2.03581238 0.0043103 3.08456421 0.00653076 C17.69363523 0.05620146 32.02575853 0.30709809 46.375 3.3125 C47.34985352 3.51117676 48.32470703 3.70985352 49.32910156 3.91455078 C97.7109774 14.03517194 141.69928269 35.9516877 177.375 70.3125 C178.3640332 71.26068604 178.3640332 71.26068604 179.37304688 72.22802734 C188.86130305 81.37247479 197.6012044 90.66984009 205.375 101.3125 C206.23306152 102.46355017 207.09113451 103.61459177 207.94921875 104.765625 C213.98736829 112.95680614 219.34595521 121.47054105 224.375 130.3125 C224.73948242 130.94430176 225.10396484 131.57610352 225.47949219 132.22705078 C247.08534998 169.97532572 256.85198095 212.74189997 256.6875 255.9375 C256.68534485 256.95540619 256.6831897 257.97331238 256.68096924 259.02206421 C256.63129854 273.63113523 256.38040191 287.96325853 253.375 302.3125 C253.07698486 303.77478027 253.07698486 303.77478027 252.77294922 305.26660156 C242.65232806 353.6484774 220.7358123 397.63678269 186.375 433.3125 C185.74287598 433.97185547 185.11075195 434.63121094 184.45947266 435.31054688 C175.31502521 444.79880305 166.01765991 453.5387044 155.375 461.3125 C154.22394983 462.17056152 153.07290823 463.02863451 151.921875 463.88671875 C143.73224019 469.92427396 135.22961724 475.30707302 126.375 480.3125 C125.66778809 480.7146875 124.96057617 481.116875 124.23193359 481.53125 C101.09654164 494.5566741 75.92537591 503.30551461 49.9375 508.625 C49.21860596 508.77235596 48.49971191 508.91971191 47.7590332 509.0715332 C33.08339502 511.86090125 18.55831162 512.66142619 3.64770508 512.62817383 C0.70811513 512.6250221 -2.2304558 512.64854926 -5.16992188 512.67382812 C-18.54306192 512.71848737 -31.43916711 511.51301542 -44.625 509.3125 C-46.33055054 509.03031616 -46.33055054 509.03031616 -48.07055664 508.74243164 C-91.33802759 500.97044532 -132.38793216 480.98345309 -165.625 452.3125 C-166.37007813 451.67828125 -167.11515625 451.0440625 -167.8828125 450.390625 C-181.38779833 438.57948485 -194.05918743 425.82889772 -204.625 411.3125 C-205.48149066 410.16255169 -206.33826433 409.01281411 -207.1953125 407.86328125 C-213.23534209 399.67315742 -218.61867614 391.16870382 -223.625 382.3125 C-224.0271875 381.60528809 -224.429375 380.89807617 -224.84375 380.16943359 C-237.8691741 357.03404164 -246.61801461 331.86287591 -251.9375 305.875 C-252.08485596 305.15610596 -252.23221191 304.43721191 -252.3840332 303.6965332 C-255.35789088 288.05024391 -255.99800362 272.57681954 -255.9375 256.6875 C-255.93534485 255.66959381 -255.9331897 254.65168762 -255.93096924 253.60293579 C-255.88129854 238.99386477 -255.63040191 224.66174147 -252.625 210.3125 C-252.42632324 209.33764648 -252.22764648 208.36279297 -252.02294922 207.35839844 C-241.90232806 158.9765226 -219.9858123 114.98821731 -185.625 79.3125 C-184.99287598 78.65314453 -184.36075195 77.99378906 -183.70947266 77.31445312 C-174.56502521 67.82619695 -165.26765991 59.0862956 -154.625 51.3125 C-153.47394983 50.45443848 -152.32290823 49.59636549 -151.171875 48.73828125 C-142.98224019 42.70072604 -134.47961724 37.31792698 -125.625 32.3125 C-124.91778809 31.9103125 -124.21057617 31.508125 -123.48193359 31.09375 C-100.34654164 18.0683259 -75.17537591 9.31948539 -49.1875 4 C-48.46860596 3.85264404 -47.74971191 3.70528809 -47.0090332 3.5534668 C-31.36274391 0.57960912 -15.88931954 -0.06050362 0 0 Z " fill="#9e9e9e" transform="translate(255.625,-0.3125)"/>
<path d="M0 0 C1.01790619 0.00215515 2.03581238 0.0043103 3.08456421 0.00653076 C17.69363523 0.05620146 32.02575853 0.30709809 46.375 3.3125 C47.34985352 3.51117676 48.32470703 3.70985352 49.32910156 3.91455078 C97.7109774 14.03517194 141.69928269 35.9516877 177.375 70.3125 C178.3640332 71.26068604 178.3640332 71.26068604 179.37304688 72.22802734 C188.86130305 81.37247479 197.6012044 90.66984009 205.375 101.3125 C206.23306152 102.46355017 207.09113451 103.61459177 207.94921875 104.765625 C213.98736829 112.95680614 219.34595521 121.47054105 224.375 130.3125 C224.73948242 130.94430176 225.10396484 131.57610352 225.47949219 132.22705078 C247.08534998 169.97532572 256.85198095 212.74189997 256.6875 255.9375 C256.68534485 256.95540619 256.6831897 257.97331238 256.68096924 259.02206421 C256.63129854 273.63113523 256.38040191 287.96325853 253.375 302.3125 C253.07698486 303.77478027 253.07698486 303.77478027 252.77294922 305.26660156 C242.65232806 353.6484774 220.7358123 397.63678269 186.375 433.3125 C185.74287598 433.97185547 185.11075195 434.63121094 184.45947266 435.31054688 C175.31502521 444.79880305 166.01765991 453.5387044 155.375 461.3125 C154.22394983 462.17056152 153.07290823 463.02863451 151.921875 463.88671875 C143.73224019 469.92427396 135.22961724 475.30707302 126.375 480.3125 C125.66778809 480.7146875 124.96057617 481.116875 124.23193359 481.53125 C101.09654164 494.5566741 75.92537591 503.30551461 49.9375 508.625 C49.21860596 508.77235596 48.49971191 508.91971191 47.7590332 509.0715332 C33.08339502 511.86090125 18.55831162 512.66142619 3.64770508 512.62817383 C0.70811513 512.6250221 -2.2304558 512.64854926 -5.16992188 512.67382812 C-18.54306192 512.71848737 -31.43916711 511.51301542 -44.625 509.3125 C-46.33055054 509.03031616 -46.33055054 509.03031616 -48.07055664 508.74243164 C-91.33802759 500.97044532 -132.38793216 480.98345309 -165.625 452.3125 C-166.37007813 451.67828125 -167.11515625 451.0440625 -167.8828125 450.390625 C-181.38779833 438.57948485 -194.05918743 425.82889772 -204.625 411.3125 C-205.48149066 410.16255169 -206.33826433 409.01281411 -207.1953125 407.86328125 C-213.23534209 399.67315742 -218.61867614 391.16870382 -223.625 382.3125 C-224.0271875 381.60528809 -224.429375 380.89807617 -224.84375 380.16943359 C-237.8691741 357.03404164 -246.61801461 331.86287591 -251.9375 305.875 C-252.08485596 305.15610596 -252.23221191 304.43721191 -252.3840332 303.6965332 C-255.35789088 288.05024391 -255.99800362 272.57681954 -255.9375 256.6875 C-255.93534485 255.66959381 -255.9331897 254.65168762 -255.93096924 253.60293579 C-255.88129854 238.99386477 -255.63040191 224.66174147 -252.625 210.3125 C-252.42632324 209.33764648 -252.22764648 208.36279297 -252.02294922 207.35839844 C-241.90232806 158.9765226 -219.9858123 114.98821731 -185.625 79.3125 C-184.99287598 78.65314453 -184.36075195 77.99378906 -183.70947266 77.31445312 C-174.56502521 67.82619695 -165.26765991 59.0862956 -154.625 51.3125 C-153.47394983 50.45443848 -152.32290823 49.59636549 -151.171875 48.73828125 C-142.98224019 42.70072604 -134.47961724 37.31792698 -125.625 32.3125 C-124.91778809 31.9103125 -124.21057617 31.508125 -123.48193359 31.09375 C-100.34654164 18.0683259 -75.17537591 9.31948539 -49.1875 4 C-48.46860596 3.85264404 -47.74971191 3.70528809 -47.0090332 3.5534668 C-31.36274391 0.57960912 -15.88931954 -0.06050362 0 0 Z M-35.625 51.3125 C-36.43485352 51.45171875 -37.24470703 51.5909375 -38.07910156 51.734375 C-55.64888051 54.82608356 -72.74667149 60.22237094 -88.66601562 68.31738281 C-90.05089209 69.02086692 -91.44074185 69.71460087 -92.83398438 70.40136719 C-142.91361147 95.1064798 -179.20031072 138.99908321 -197.625 191.3125 C-199.5574244 197.24469232 -201.19838018 203.24002926 -202.625 209.3125 C-202.87709229 210.35881592 -202.87709229 210.35881592 -203.13427734 211.42626953 C-215.35188907 263.85873619 -204.61380381 320.65015236 -176.625 366.3125 C-162.54304536 388.28553632 -144.72065259 407.9143927 -123.625 423.3125 C-122.56796875 424.09109375 -121.5109375 424.8696875 -120.421875 425.671875 C-112.17993439 431.55897544 -103.54453278 436.53626302 -94.625 441.3125 C-93.48289062 441.93125 -92.34078125 442.55 -91.1640625 443.1875 C-75.83957935 451.18909493 -59.8510194 456.14623727 -42.99926758 459.79589844 C-41.42657816 460.13808978 -39.8560091 460.49018807 -38.2878418 460.85253906 C-16.30685971 465.91838592 7.16281482 465.8045808 29.375 462.3125 C30.88928658 462.09219797 32.40361077 461.87215443 33.91796875 461.65234375 C56.84834425 458.20362299 79.02267994 450.3903451 99.375 439.3125 C99.96684082 438.99845215 100.55868164 438.6844043 101.16845703 438.36083984 C133.85259139 420.97910934 160.26436725 393.72422968 179.375 362.3125 C180.02726562 361.28898437 180.67953125 360.26546875 181.3515625 359.2109375 C207.9906973 315.59068091 214.83790494 258.98417221 203.625 209.625 C189.9191342 153.79205881 155.27756943 106.94418281 106.28173828 77.03466797 C95.45121891 70.55207767 84.30843202 65.52290451 72.49414062 61.10839844 C70.74300653 60.45071443 69.0027032 59.76427087 67.265625 59.0703125 C56.31468559 54.78949073 44.6187243 52.59807402 33.0625 50.625 C32.3708374 50.50568115 31.6791748 50.3863623 30.96655273 50.26342773 C8.90391195 46.68171249 -13.68400128 47.41038294 -35.625 51.3125 Z " fill="#cfcfcf" transform="translate(255.625,-0.3125)"/>
<path d="M0 0 C4.60556287 2.80827004 7.74044495 7.02514845 9.08203125 12.26953125 C9.22940841 15.27805813 9.20003251 18.26049924 9.08203125 21.26953125 C10.36078125 21.33140625 11.63953125 21.39328125 12.95703125 21.45703125 C30.81631316 23.31580321 55.86035369 30.53791865 68.01953125 44.39453125 C73.00997002 51.35090045 72.77420847 57.95464286 72.08203125 66.26953125 C70.49232716 72.4855598 66.43917585 76.88440641 61.08203125 80.26953125 C54.72370853 83.30002679 48.26394824 84.68022289 41.4765625 82.390625 C38.30570995 81.09404157 35.19631622 79.69676356 32.08203125 78.26953125 C30.04826378 77.36039511 28.01150174 76.45848102 25.97265625 75.56079102 C24.63043125 74.96899468 23.29040551 74.37217325 21.953125 73.76928711 C17.03280466 71.58087422 12.25551387 69.99402546 7.08203125 68.26953125 C7.08203125 86.08953125 7.08203125 103.90953125 7.08203125 122.26953125 C9.39203125 122.59953125 11.70203125 122.92953125 14.08203125 123.26953125 C32.63615735 128.23196098 50.99699761 135.95660078 65.08203125 149.26953125 C66.15324219 150.26146484 66.15324219 150.26146484 67.24609375 151.2734375 C71.65826898 155.76227215 74.61915798 160.70549166 77.45703125 166.26953125 C77.79114014 166.92187744 78.12524902 167.57422363 78.46948242 168.24633789 C85.56120177 182.90620871 85.94234693 203.89460866 81.01953125 219.26953125 C73.79034628 238.42585892 60.02611778 250.82436174 41.9609375 259.62890625 C35.26642162 262.60115297 28.15153394 264.42199383 21.08203125 266.26953125 C20.42460937 266.47835938 19.7671875 266.6871875 19.08984375 266.90234375 C15.76403333 267.51056589 12.45707607 267.325782 9.08203125 267.26953125 C9.11345215 268.25179687 9.11345215 268.25179687 9.14550781 269.25390625 C9.22933508 272.25895453 9.2809002 275.26375589 9.33203125 278.26953125 C9.36554688 279.29949219 9.3990625 280.32945312 9.43359375 281.390625 C9.52565473 288.61741174 8.68474963 294.29645188 3.70458984 299.78857422 C-0.60554513 303.69116464 -4.72459056 305.07369391 -10.41796875 305.58203125 C-16.89188044 305.00400342 -20.70064612 302.05676234 -24.91796875 297.26953125 C-27.61475304 293.46909376 -28.28234723 290.95413225 -28.2109375 286.3125 C-28.20126953 285.20068359 -28.19160156 284.08886719 -28.18164062 282.94335938 C-28.15650391 281.79287109 -28.13136719 280.64238281 -28.10546875 279.45703125 C-28.09193359 278.28720703 -28.07839844 277.11738281 -28.06445312 275.91210938 C-28.02917153 273.03077925 -27.97987155 270.15039221 -27.91796875 267.26953125 C-28.86482544 267.19279175 -28.86482544 267.19279175 -29.83081055 267.11450195 C-38.14053457 266.37369142 -45.88701185 264.46015864 -53.91796875 262.26953125 C-55.00207031 261.98207031 -56.08617187 261.69460938 -57.203125 261.3984375 C-72.44225566 257.06366582 -98.48845864 248.65724931 -106.91796875 234.26953125 C-107.53671875 233.21765625 -108.15546875 232.16578125 -108.79296875 231.08203125 C-110.93915083 223.80885864 -111.04269611 216.89349827 -107.91796875 209.89453125 C-104.25720411 203.42579373 -98.86527704 199.67395954 -91.91796875 197.26953125 C-81.63627803 195.16841522 -73.54746838 200.47704658 -64.91796875 205.26953125 C-52.22750218 212.2324186 -40.23674876 218.40577525 -25.91796875 221.26953125 C-25.91796875 202.78953125 -25.91796875 184.30953125 -25.91796875 165.26953125 C-29.21796875 164.60953125 -32.51796875 163.94953125 -35.91796875 163.26953125 C-38.67336586 162.45176689 -41.34510716 161.6128183 -44.04296875 160.64453125 C-44.76307129 160.38728271 -45.48317383 160.13003418 -46.22509766 159.86499023 C-67.34597964 152.07646356 -87.26320866 140.868668 -97.09765625 119.734375 C-103.71425766 104.11050233 -104.93975512 83.99241868 -99.85546875 67.76953125 C-92.10596035 48.74405276 -78.22626169 36.23805068 -59.953125 27.546875 C-49.93408087 23.33036608 -38.87127185 20.03481761 -27.91796875 20.26953125 C-28.02238281 19.34333984 -28.02238281 19.34333984 -28.12890625 18.3984375 C-28.52983815 12.12671708 -27.55275993 8.23254776 -23.7578125 3.1875 C-16.8513053 -4.01227714 -8.68572298 -4.18749506 0 0 Z " fill="#cfcfcf" transform="translate(268.91796875,104.73046875)"/>
<path d="M0 0 C18.10945274 7.24378109 18.10945274 7.24378109 24 17 C26.03556982 23.10670946 25.81604934 29.80301516 23.5 35.8125 C20.23586371 42.21478838 14.8755532 45.51730726 8.25 47.875 C5.20225044 48.82879213 3.31026223 49 0 49 C0 32.83 0 16.66 0 0 Z " fill="#9e9e9e" transform="translate(276,279)"/>
<path d="M0 0 C0 15.84 0 31.68 0 48 C-10.50943565 44.49685478 -18.27136559 40.81398452 -24.1015625 31.1796875 C-26.18871834 26.11606594 -26.0290002 19.69836532 -24.08984375 14.61328125 C-19.03165033 6.0745303 -10.1754773 0 0 0 Z " fill="#9e9e9e" transform="translate(243,169)"/>
</svg>
