<svg width="10" height="20" viewBox="0 0 10 20" fill="none" xmlns="http://www.w3.org/2000/svg">
<path d="M7.73438 0.544922L7.27539 3.38672H5.84961L6.29883 0.544922H7.73438ZM5.04883 16.4922L4.61914 19.1289H3.18359L3.60352 16.4922H5.04883ZM5.72266 13.1426C5.75521 12.8757 5.76497 12.6283 5.75195 12.4004C5.73893 12.166 5.68034 11.9512 5.57617 11.7559C5.47201 11.554 5.29622 11.3685 5.04883 11.1992C4.43685 10.8281 3.88672 10.444 3.39844 10.0469C2.91667 9.64323 2.54557 9.17448 2.28516 8.64062C2.03125 8.10026 1.93034 7.4362 1.98242 6.64844C2.02799 5.86719 2.24609 5.16732 2.63672 4.54883C3.03385 3.92383 3.55143 3.43555 4.18945 3.08398C4.83398 2.72591 5.55013 2.55339 6.33789 2.56641C6.98242 2.57943 7.5293 2.7194 7.97852 2.98633C8.43424 3.24674 8.80208 3.59831 9.08203 4.04102C9.36849 4.47721 9.57357 4.96875 9.69727 5.51562C9.82747 6.05599 9.88281 6.61263 9.86328 7.18555L6.72852 7.17578C6.72852 7.05208 6.73503 6.8763 6.74805 6.64844C6.76758 6.41406 6.76758 6.17969 6.74805 5.94531C6.73503 5.70443 6.67969 5.49935 6.58203 5.33008C6.48438 5.16081 6.32161 5.07617 6.09375 5.07617C5.82031 5.06966 5.61523 5.16081 5.47852 5.34961C5.3418 5.5319 5.24089 5.75 5.17578 6.00391C5.11719 6.25781 5.07812 6.48242 5.05859 6.67773C5.01953 6.92513 5.01302 7.15951 5.03906 7.38086C5.0651 7.60221 5.13021 7.81055 5.23438 8.00586C5.34505 8.20117 5.51107 8.37695 5.73242 8.5332C6.33789 8.91732 6.88151 9.31445 7.36328 9.72461C7.84505 10.1348 8.21289 10.61 8.4668 11.1504C8.72721 11.6908 8.83464 12.3516 8.78906 13.1328C8.73698 13.9401 8.51888 14.6562 8.13477 15.2812C7.75716 15.8997 7.24609 16.3815 6.60156 16.7266C5.96354 17.0651 5.23763 17.2246 4.42383 17.2051C3.73372 17.1921 3.14128 17.0553 2.64648 16.7949C2.15169 16.5345 1.74805 16.1862 1.43555 15.75C1.12956 15.3073 0.908203 14.8027 0.771484 14.2363C0.634766 13.6634 0.572917 13.0612 0.585938 12.4297L3.71094 12.4395C3.70443 12.6152 3.69466 12.8333 3.68164 13.0938C3.67513 13.3542 3.68815 13.6048 3.7207 13.8457C3.75977 14.0866 3.84766 14.2917 3.98438 14.4609C4.1276 14.6302 4.33919 14.7116 4.61914 14.7051C4.9056 14.7116 5.12044 14.6302 5.26367 14.4609C5.4069 14.2852 5.51107 14.0801 5.57617 13.8457C5.64128 13.6048 5.6901 13.3704 5.72266 13.1426Z" fill="#929292"/>
</svg>
