<svg width="30" height="28" viewBox="0 0 30 28" fill="none" xmlns="http://www.w3.org/2000/svg">
<path d="M11.8124 0.0337864C11.8523 0.0334679 11.8923 0.0331494 11.9334 0.0328212C12.0661 0.0318565 12.1988 0.0314009 12.3316 0.0309537C12.4272 0.0303788 12.5227 0.0297777 12.6183 0.0291525C12.9312 0.0272551 13.244 0.0261353 13.5569 0.0250976C13.6648 0.0247078 13.7728 0.0243169 13.8807 0.023925C14.3297 0.0223545 14.7787 0.0209926 15.2276 0.0201727C15.8701 0.0189915 16.5125 0.0165761 17.155 0.0124387C17.6074 0.00962488 18.0598 0.00820594 18.5122 0.00782165C18.7821 0.00755636 19.052 0.00668533 19.322 0.0043252C19.5759 0.00213697 19.8297 0.00168055 20.0836 0.00253592C20.1766 0.00255195 20.2696 0.00194977 20.3625 0.000671214C20.9379 -0.0068094 21.3165 0.0403162 21.7445 0.551228C22.0117 1.02815 22.0358 1.50746 21.9677 2.08021C21.8048 2.56351 21.5802 2.87832 21.2036 3.10952C20.8725 3.24399 20.5159 3.2091 20.1715 3.20559C20.0823 3.20575 19.9931 3.20604 19.9038 3.20645C19.7123 3.20707 19.5208 3.2068 19.3292 3.20584C19.0255 3.20435 18.7219 3.20509 18.4182 3.20615C17.7182 3.20825 17.0181 3.20748 16.3181 3.20668C15.6774 3.20597 15.0367 3.20589 14.3961 3.20812C14.0951 3.20909 13.7941 3.20867 13.4931 3.20715C13.3045 3.20649 13.116 3.20705 12.9275 3.20791C12.8411 3.20806 12.7547 3.20773 12.6683 3.20684C11.5625 3.19608 10.5074 3.53742 9.6857 4.52776C9.04721 5.34257 8.64371 6.49781 8.63889 7.65227C8.63923 7.70976 8.63956 7.76725 8.6399 7.82648C8.6398 7.88937 8.63971 7.95226 8.63961 8.01706C8.63942 8.22598 8.64004 8.43488 8.64067 8.6438C8.6407 8.79428 8.64068 8.94476 8.64062 9.09524C8.64059 9.50248 8.64126 9.90971 8.64206 10.317C8.64277 10.743 8.64284 11.1691 8.64297 11.5951C8.64333 12.4014 8.64427 13.2076 8.64541 14.0139C8.64669 14.932 8.64732 15.8501 8.64789 16.7683C8.64909 18.6564 8.6511 20.5445 8.65364 22.4326C8.72691 22.338 8.72691 22.338 8.80165 22.2414C9.26306 21.6456 9.72539 21.051 10.1886 20.4575C10.4267 20.1523 10.6645 19.8468 10.9015 19.5403C11.1305 19.2443 11.3603 18.9494 11.5906 18.6552C11.6782 18.5431 11.7654 18.4305 11.8524 18.3176C11.9746 18.1589 12.0979 18.0016 12.2215 17.8446C12.2569 17.7981 12.2922 17.7515 12.3286 17.7036C12.6377 17.3158 13.016 17.0511 13.4571 17.0174C13.8954 17.0882 14.1952 17.2837 14.4712 17.7239C14.6343 18.0342 14.673 18.2563 14.6785 18.6347C14.6808 18.7198 14.6831 18.8049 14.6854 18.8925C14.6027 19.5907 14.1403 20.0639 13.7638 20.5397C13.7024 20.6182 13.641 20.6967 13.5796 20.7752C13.4138 20.9872 13.2474 21.1984 13.0809 21.4095C12.9063 21.631 12.7321 21.8531 12.5579 22.0751C12.2654 22.4475 11.9726 22.8195 11.6796 23.1912C11.3412 23.6205 11.0033 24.0506 10.6658 24.4811C10.3755 24.8514 10.0848 25.2213 9.7939 25.5908C9.62036 25.8112 9.44693 26.0318 9.27381 26.2527C9.11112 26.4603 8.94801 26.6674 8.78458 26.874C8.72477 26.9498 8.66511 27.0258 8.6056 27.102C8.52419 27.2061 8.44218 27.3095 8.36016 27.4129C8.31449 27.4709 8.26883 27.5289 8.22178 27.5887C7.94608 27.8852 7.7048 27.9891 7.34653 27.9932C7.24775 27.9966 7.24775 27.9966 7.14698 28C6.60071 27.8864 6.22961 27.3033 5.85609 26.8251C5.7944 26.7469 5.73269 26.6688 5.67094 26.5907C5.50433 26.3798 5.33826 26.1682 5.17231 25.9564C4.99816 25.7343 4.82359 25.5127 4.64909 25.2911C4.35632 24.9191 4.0639 24.5466 3.7717 24.1739C3.43418 23.7433 3.09606 23.3136 2.7576 22.8843C2.4665 22.515 2.17573 22.1452 1.88524 21.7751C1.71196 21.5544 1.53858 21.3338 1.36489 21.1136C1.2017 20.9066 1.03894 20.6991 0.876492 20.4912C0.816911 20.4152 0.757184 20.3393 0.697301 20.2636C0.615414 20.16 0.534109 20.0557 0.452832 19.9514C0.407232 19.8933 0.361632 19.8352 0.31465 19.7753C0.0228994 19.3364 -0.00858283 18.9503 0.00158319 18.3925C0.0451996 17.9345 0.217589 17.6578 0.478806 17.3536C0.784382 17.0839 1.08332 16.987 1.45379 17.0538C1.87347 17.2068 2.15698 17.4493 2.45725 17.8446C2.5159 17.9191 2.5159 17.9191 2.57573 17.9951C2.70331 18.1577 2.82964 18.3218 2.95599 18.4859C3.04478 18.5997 3.13364 18.7133 3.22258 18.8269C3.45537 19.1247 3.68712 19.4238 3.91865 19.7231C4.15553 20.0289 4.3934 20.3335 4.63118 20.6382C5.09679 21.2351 5.5613 21.8334 6.02512 22.4326C6.02526 22.3552 6.0254 22.2777 6.02554 22.1979C6.02891 20.3085 6.03325 18.4191 6.03859 16.5298C6.04116 15.616 6.04341 14.7023 6.04492 13.7886C6.04624 12.9918 6.04815 12.1949 6.05076 11.398C6.05213 10.9765 6.0532 10.555 6.05356 10.1335C6.05391 9.73583 6.05506 9.33814 6.0568 8.94044C6.05729 8.79542 6.05751 8.65039 6.05741 8.50536C6.05626 6.11312 6.55102 3.95409 7.89294 2.20742C8.91388 0.925919 10.3656 0.0420291 11.8124 0.0337864Z" fill="black"/>
<path d="M18 0H28.5C29.3284 0 30 0.671573 30 1.5V1.71C30 2.53843 29.3284 3.21 28.5 3.21H18V0Z" fill="black"/>
<path d="M14 8.5C14 7.67157 14.6716 7 15.5 7H26.5C27.3284 7 28 7.67157 28 8.5V8.5C28 9.32843 27.3284 10 26.5 10H15.5C14.6716 10 14 9.32843 14 8.5V8.5Z" fill="black"/>
<path d="M16 1.5C16 0.671573 16.6716 0 17.5 0H28.5C29.3284 0 30 0.671573 30 1.5V1.5C30 2.32843 29.3284 3 28.5 3H17.5C16.6716 3 16 2.32843 16 1.5V1.5Z" fill="black"/>
<path d="M14 15.5C14 14.6716 14.6716 14 15.5 14H24.5C25.3284 14 26 14.6716 26 15.5V15.5C26 16.3284 25.3284 17 24.5 17H15.5C14.6716 17 14 16.3284 14 15.5V15.5Z" fill="black"/>
</svg>
